<?xml version="1.0" standalone="no"?>
<!DOCTYPE svg PUBLIC "-//W3C//DTD SVG 20010904//EN"
 "http://www.w3.org/TR/2001/REC-SVG-20010904/DTD/svg10.dtd">
<svg version="1.0" xmlns="http://www.w3.org/2000/svg"
 width="260.000000pt" height="260.000000pt" viewBox="0 0 260.000000 260.000000"
 preserveAspectRatio="xMidYMid meet">
<metadata>
Created by potrace 1.14, written by Peter Selinger 2001-2017
</metadata>
<g transform="translate(0.000000,260.000000) scale(0.100000,-0.100000)"
fill="#000000" stroke="none">
<path d="M1295 1819 c-4 -6 3 -21 15 -34 l23 -24 -27 -7 c-18 -4 -39 0 -61 12
-44 24 -53 14 -25 -31 24 -38 14 -37 125 -20 19 3 44 1 55 -5 15 -8 28 -6 57
8 21 11 56 23 78 27 45 8 95 31 95 44 0 18 -55 21 -120 7 -61 -13 -67 -12
-127 10 -72 27 -79 28 -88 13z"/>
<path d="M1060 1693 c-128 -21 -271 -83 -315 -135 -52 -62 -42 -144 27 -223
41 -47 43 -50 40 -109 -6 -122 44 -241 139 -331 171 -163 425 -164 595 -3 31
29 69 75 84 102 24 41 37 52 85 71 64 26 90 47 112 88 18 35 10 46 -16 23 -28
-25 -97 -43 -193 -51 -79 -7 -82 -6 -60 10 12 9 22 25 22 35 0 10 4 20 8 22 4
2 6 24 4 51 -3 39 -7 47 -25 47 -19 0 -20 1 -2 20 39 43 57 18 60 -90 2 -62 4
-65 29 -68 35 -4 130 24 146 43 11 13 6 15 -33 15 -60 0 -77 8 -77 35 0 26 27
84 41 86 15 2 22 5 55 20 28 13 34 18 34 34 0 3 13 -1 29 -10 28 -14 30 -14
28 6 -2 30 -51 52 -132 61 -84 9 -91 10 -130 28 -28 13 -29 14 -7 18 26 4 20
22 -8 22 -10 0 -48 22 -84 50 -194 146 -479 108 -617 -85 -30 -42 -34 -45 -46
-29 -23 32 -15 71 22 113 43 47 44 56 6 37 -48 -26 -81 -72 -81 -117 0 -34 7
-47 46 -87 42 -44 46 -46 57 -28 82 130 135 175 241 208 117 36 259 7 347 -71
35 -31 40 -39 26 -44 -11 -4 -17 -1 -17 8 0 11 -13 15 -54 15 -49 0 -54 2 -49
20 4 15 0 20 -16 20 -11 0 -21 4 -21 9 0 11 -66 51 -85 51 -30 0 -24 -21 10
-36 42 -17 41 -23 -7 -31 -18 -2 -48 -14 -66 -25 -22 -13 -43 -18 -61 -15 -32
7 -51 -7 -51 -38 0 -11 -7 -29 -15 -39 -8 -11 -15 -27 -15 -35 -1 -9 -19 -36
-40 -60 l-40 -43 -55 33 c-75 45 -131 103 -151 154 -15 39 -15 45 0 74 30 58
124 109 296 160 61 18 50 26 -20 14z m630 -353 c0 -5 -4 -10 -10 -10 -5 0 -10
5 -10 10 0 6 5 10 10 10 6 0 10 -4 10 -10z m-766 -133 c40 -37 44 -47 18 -47
-22 0 -42 -19 -42 -39 0 -9 12 -42 27 -73 25 -52 31 -57 53 -52 36 8 72 33 77
55 11 41 68 9 93 -51 8 -19 19 -38 24 -42 19 -13 28 -8 23 12 -3 13 4 31 20
50 28 34 41 37 50 13 4 -10 12 -22 19 -28 18 -16 24 -55 8 -55 -19 0 0 -40 31
-62 20 -15 25 -16 35 -3 10 12 9 16 -4 21 -9 3 -16 14 -16 24 0 11 -4 22 -10
25 -5 3 -10 13 -10 22 0 13 3 13 16 3 12 -11 18 -10 31 3 14 14 14 18 2 33 -9
12 -10 15 -1 10 7 -4 14 -2 17 6 4 10 29 12 100 10 52 -2 95 -6 95 -9 0 -18
-72 -99 -114 -128 -73 -49 -129 -67 -216 -67 -199 1 -349 139 -375 346 -5 35
-4 56 3 56 5 0 26 -15 46 -33z m634 -23 c-16 -33 -58 -52 -58 -27 0 18 63 76
68 62 2 -4 -3 -20 -10 -35z m-85 -34 c4 -15 0 -20 -15 -20 -16 0 -18 3 -9 13
6 8 8 17 4 20 -3 4 -2 7 4 7 6 0 13 -9 16 -20z m-448 -78 c-3 -3 -11 0 -18 7
-9 10 -8 11 6 5 10 -3 15 -9 12 -12z"/>
<path d="M1810 1450 c0 -5 5 -10 10 -10 6 0 10 5 10 10 0 6 -4 10 -10 10 -5 0
-10 -4 -10 -10z"/>
</g>
</svg>
